<?xml version="1.0" encoding="UTF-8"?>
<svg xmlns="http://www.w3.org/2000/svg" xmlns:xlink="http://www.w3.org/1999/xlink" viewBox="0 0 500 500" width="500px" height="500px">
<g id="surface6767824">
<path style=" stroke:none;fill-rule:nonzero;fill:rgb(100%,100%,100%);fill-opacity:1;" d="M 250 43 C 135.863281 43 43 135.851562 43 250 C 43 364.148438 135.863281 457 250 457 C 364.136719 457 457 364.148438 457 250 C 457 135.851562 364.136719 43 250 43 Z M 187 340 L 151 340 L 151 205 L 187 205 Z M 169 178 C 159.054688 178 151 169.945312 151 160 C 151 150.054688 159.054688 142 169 142 C 178.945312 142 187 150.054688 187 160 C 187 169.945312 178.945312 178 169 178 Z M 358 340 L 322 340 L 322 272.5 C 322 255.175781 307.824219 241 290.5 241 C 273.175781 241 259 255.175781 259 272.5 L 259 340 L 223 340 L 223 205 L 259 205 L 259 221.34375 C 269.511719 211.246094 283.769531 205 299.5 205 C 331.808594 205 358 231.191406 358 263.5 Z M 358 340 "/>
</g>
</svg>
