<svg id="egL7eNAHoXQ1" xmlns="http://www.w3.org/2000/svg" xmlns:xlink="http://www.w3.org/1999/xlink" viewBox="0 0 256 256" shape-rendering="geometricPrecision" text-rendering="geometricPrecision"><g id="egL7eNAHoXQ2" transform="matrix(0.8 0 0 0.8 25.6 25.6004)"><path id="egL7eNAHoXQ3" d="M153.094392,165.678589L90.309411,152.558384C90.041407,153.070392,89.753402,153.566399,89.433397,154.034407L146.59029,237.41171L150.038344,233.967656L159.762496,173.498711C156.454445,172.110689,153.966406,169.210644,153.094392,165.678589L153.094392,165.678589ZM130.190034,83.605306C127.837997,87.213363,123.777934,89.6014,119.153862,89.6014C118.441851,89.6014,117.74984,89.529399,117.069829,89.421397L88.437382,134.222097L164.934577,101.301583C164.910577,100.993578,164.842576,100.705574,164.842576,100.389569C164.842576,99.745559,164.930577,99.121549,165.034579,98.505539L130.190034,83.605306L130.190034,83.605306ZM132.270067,75.441179L169.334646,91.289426C170.506664,90.373412,171.842685,89.693402,173.310708,89.281395L179.402803,51.400803L156.194441,28.192441L130.070032,69.069079C131.322052,70.917108,132.098064,73.093142,132.270067,75.441179L132.270067,75.441179ZM209.93528,81.93328L186.674917,58.668917L181.618838,90.077408C182.906858,90.729418,184.054876,91.597431,185.014891,92.661448L209.93528,81.93328L209.93528,81.93328ZM154.206409,157.406459C156.018438,154.130408,159.36249,151.866373,163.294551,151.562368L169.974656,110.013719C169.450648,109.665714,168.98264,109.249707,168.522633,108.8217L91.585431,141.934218C91.781434,142.73823,91.917436,143.558243,91.981437,144.410256L154.206409,157.406459L154.206409,157.406459ZM216.271379,88.273379L189.358959,99.85356L255.759996,128.242004L256,128.002L216.271379,88.273379L216.271379,88.273379ZM168.178628,173.622713L160.090501,223.907499L207.055235,176.942765L173.226707,169.878654C171.934686,171.562681,170.202659,172.866701,168.178628,173.622713L168.178628,173.622713ZM76.893202,160.694511C75.193175,160.694511,73.56515,160.402506,72.041126,159.886498L56.440882,184.29888L50.412788,178.274786L65.189019,155.154424C64.821013,154.702417,64.485008,154.22641,64.169003,153.738402L37.400584,165.262582L31.056485,158.918483L60.356943,146.306286L7.384115,135.250113L0.140002,128.002L2.432038,125.709964L63.516993,138.462163C64.225004,137.126143,65.125018,135.898123,66.185034,134.846107L36.536571,91.601431L42.524664,85.613338L73.501149,130.798044C74.593166,130.55004,75.725183,130.402038,76.893202,130.402038C78.201222,130.402038,79.469242,130.58604,80.681261,130.898045L109.665714,85.545337C107.393678,83.1773,105.989656,79.96925,105.989656,76.429194C105.989656,75.389178,106.121658,74.381162,106.349662,73.413147L70.189097,57.952906L76.533196,51.608806L110.793731,66.261035C113.069767,64.389006,115.981812,63.264989,119.157862,63.264989C120.657885,63.264989,122.097908,63.528993,123.445929,63.993L150.170346,22.168346L128.002,0L0,128.002L128.002,256.004L140.598197,243.407803L83.013297,159.398491C81.137268,160.226504,79.069236,160.694511,76.893202,160.694511L76.893202,160.694511ZM178.122783,111.805747L171.326677,154.042407C173.666714,155.930436,175.226738,158.69448,175.522743,161.854529L214.095345,169.906655L249.415897,134.586103L185.662901,107.329677C183.874873,109.705714,181.202831,111.35374,178.122783,111.805747L178.122783,111.805747Z" fill="rgb(255,255,255)" stroke="none" stroke-width="1"/></g><ellipse id="egL7eNAHoXQ4" rx="100" ry="100" transform="matrix(1 0 0 1 128 128)" fill="rgba(210,219,237,0)" stroke="rgb(255,255,255)" stroke-width="10"/></svg>